<?xml version="1.0" encoding="UTF-8" standalone="no"?>
<!DOCTYPE svg PUBLIC "-//W3C//DTD SVG 1.1//EN"
 "http://www.w3.org/Graphics/SVG/1.1/DTD/svg11.dtd">
<!-- Generated by graphviz version 3.0.0 (20220413.0242)
 -->
<!-- Title: iop/system Pages: 1 -->
<!--zoomable 247 -->
<svg id="main" version="1.1" xmlns="http://www.w3.org/2000/svg" xmlns:xlink="http://www.w3.org/1999/xlink" xml:space="preserve" onload="init(evt)">
<style type="text/css"><![CDATA[
.edge:hover path { stroke: red; }
.edge:hover polygon { stroke: red; fill: red; }
]]></style>
<script type="text/javascript"><![CDATA[
var edges = document.getElementsByTagName('g');
if (edges && edges.length) {
  for (var i=0;i<edges.length;i++) {
    if (edges[i].id.substr(0,4)=='edge') {
      edges[i].setAttribute('class','edge');
    }
  }
}
]]></script>
        <defs>
                <circle id="rim" cx="0" cy="0" r="7"/>
                <circle id="rim2" cx="0" cy="0" r="3.5"/>
                <g id="zoomPlus">
                        <use xlink:href="#rim" fill="#404040">
                                <set attributeName="fill" to="#808080" begin="zoomplus.mouseover" end="zoomplus.mouseout"/>
                        </use>
                        <path d="M-4,0h8M0,-4v8" fill="none" stroke="white" stroke-width="1.5" pointer-events="none"/>
                </g>
                <g id="zoomMin">
                        <use xlink:href="#rim" fill="#404040">
                                <set attributeName="fill" to="#808080" begin="zoomminus.mouseover" end="zoomminus.mouseout"/>
                        </use>
                        <path d="M-4,0h8" fill="none" stroke="white" stroke-width="1.5" pointer-events="none"/>
                </g>
                <g id="dirArrow">
                        <path fill="none" stroke="white" stroke-width="1.5" d="M0,-3.0v7 M-2.5,-0.5L0,-3.0L2.5,-0.5"/>
                </g>
               <g id="resetDef">
                       <use xlink:href="#rim2" fill="#404040">
                               <set attributeName="fill" to="#808080" begin="reset.mouseover" end="reset.mouseout"/>
                       </use>
               </g>
        </defs>

<script type="text/javascript">
var viewWidth = 744;
var viewHeight = 247;
var sectionId = 'dynsection-0';
</script>
<script xlink:href="svgpan.js"/>
<svg id="graph" class="graph">
<g id="viewport">
<title>iop/system</title>
<polygon fill="white" stroke="transparent" points="-4,4 -4,-243 740,-243 740,4 -4,4"/>
<g id="clust1" class="cluster">
<title>clusterdir_0981ace215aa2029f526b70c145b9fbe</title>
<g id="a_clust1"><a xlink:href="dir_0981ace215aa2029f526b70c145b9fbe.html" target="_top" xlink:title="iop">
<polygon fill="#deebf9" stroke="#404040" stroke-dasharray="5,2" points="8,-8 8,-231 674,-231 674,-8 8,-8"/>
<text text-anchor="middle" x="341" y="-219" font-family="Helvetica,sans-Serif" font-size="10.00">iop</text>
</a>
</g>
</g>
<g id="clust2" class="cluster">
<title>clusterdir_40ac35421bc63b72c26b6c69b1517fd6</title>
<g id="a_clust2"><a xlink:href="dir_40ac35421bc63b72c26b6c69b1517fd6.html" target="_top">
<polygon fill="#deebf9" stroke="#404040" stroke-width="2" points="16,-80 16,-204 666,-204 666,-80 16,-80"/>
</a>
</g>
</g>
<!-- dir_9be0baa3d4a3e9f480a9ee70594037fa -->
<g id="node1" class="node">
<title>dir_9be0baa3d4a3e9f480a9ee70594037fa</title>
<g id="a_node1"><a xlink:href="dir_9be0baa3d4a3e9f480a9ee70594037fa.html" target="_top" xlink:title="kernel">
<polygon fill="#60a2e3" stroke="red" points="310,-52 256,-52 256,-16 310,-16 310,-52"/>
<text text-anchor="middle" x="283" y="-31.5" font-family="Helvetica,sans-Serif" font-size="10.00">kernel</text>
</a>
</g>
</g>
<!-- dir_40ac35421bc63b72c26b6c69b1517fd6 -->
<g id="node2" class="node">
<title>dir_40ac35421bc63b72c26b6c69b1517fd6</title>
<text text-anchor="middle" x="631" y="-175.5" font-family="Helvetica,sans-Serif" font-size="10.00">system</text>
</g>
<!-- dir_249e27ed47f6a2eab7da7b1ddc4f92fd -->
<g id="node3" class="node">
<title>dir_249e27ed47f6a2eab7da7b1ddc4f92fd</title>
<g id="a_node3"><a xlink:href="dir_249e27ed47f6a2eab7da7b1ddc4f92fd.html" target="_top" xlink:title="alloc">
<polygon fill="#60a2e3" stroke="#404040" points="514,-196 460,-196 460,-160 514,-160 514,-196"/>
<text text-anchor="middle" x="487" y="-175.5" font-family="Helvetica,sans-Serif" font-size="10.00">alloc</text>
</a>
</g>
</g>
<!-- dir_249e27ed47f6a2eab7da7b1ddc4f92fd&#45;&gt;dir_9be0baa3d4a3e9f480a9ee70594037fa -->
<g id="edge1" class="edge">
<title>dir_249e27ed47f6a2eab7da7b1ddc4f92fd&#45;&gt;dir_9be0baa3d4a3e9f480a9ee70594037fa</title>
<path fill="none" stroke="black" d="M463.36,-160C436.16,-140.49 390.06,-107.63 350,-80 339.46,-72.73 327.9,-64.91 317.4,-57.87"/>
<polygon fill="black" stroke="black" points="319.13,-54.81 308.87,-52.16 315.24,-60.63 319.13,-54.81"/>
<g id="a_edge1&#45;headlabel"><a xlink:href="dir_000003_000154.html" target="_top" xlink:title="7">
<text text-anchor="middle" x="323.7" y="-51.95" font-family="Helvetica,sans-Serif" font-size="10.00">7</text>
</a>
</g>
</g>
<!-- dir_f82a163f83eb0dcdf294ef3743365a67 -->
<g id="node4" class="node">
<title>dir_f82a163f83eb0dcdf294ef3743365a67</title>
<g id="a_node4"><a xlink:href="dir_f82a163f83eb0dcdf294ef3743365a67.html" target="_top" xlink:title="iomanx">
<polygon fill="#60a2e3" stroke="#404040" points="586,-196 532,-196 532,-160 586,-160 586,-196"/>
<text text-anchor="middle" x="559" y="-175.5" font-family="Helvetica,sans-Serif" font-size="10.00">iomanx</text>
</a>
</g>
</g>
<!-- dir_f82a163f83eb0dcdf294ef3743365a67&#45;&gt;dir_9be0baa3d4a3e9f480a9ee70594037fa -->
<g id="edge2" class="edge">
<title>dir_f82a163f83eb0dcdf294ef3743365a67&#45;&gt;dir_9be0baa3d4a3e9f480a9ee70594037fa</title>
<path fill="none" stroke="black" d="M532,-160.91C498.14,-140.99 438.09,-106.44 385,-80 363.56,-69.32 339.01,-58.45 319.37,-50.07"/>
<polygon fill="black" stroke="black" points="320.73,-46.85 310.16,-46.17 318,-53.29 320.73,-46.85"/>
<g id="a_edge2&#45;headlabel"><a xlink:href="dir_000146_000154.html" target="_top" xlink:title="14">
<text text-anchor="middle" x="325.15" y="-43.14" font-family="Helvetica,sans-Serif" font-size="10.00">14</text>
</a>
</g>
</g>
<!-- dir_bdd9a5d540de89e9fe90efdfc6973a4f -->
<g id="node14" class="node">
<title>dir_bdd9a5d540de89e9fe90efdfc6973a4f</title>
<g id="a_node14"><a xlink:href="dir_bdd9a5d540de89e9fe90efdfc6973a4f.html" target="_top" xlink:title="common">
<polygon fill="none" stroke="red" points="736,-124 682,-124 682,-88 736,-88 736,-124"/>
<text text-anchor="middle" x="709" y="-103.5" font-family="Helvetica,sans-Serif" font-size="10.00">common</text>
</a>
</g>
</g>
<!-- dir_f82a163f83eb0dcdf294ef3743365a67&#45;&gt;dir_bdd9a5d540de89e9fe90efdfc6973a4f -->
<g id="edge3" class="edge">
<title>dir_f82a163f83eb0dcdf294ef3743365a67&#45;&gt;dir_bdd9a5d540de89e9fe90efdfc6973a4f</title>
<path fill="none" stroke="black" d="M586.12,-164.17C589.11,-162.76 592.12,-161.35 595,-160 620.94,-147.85 650.25,-134.22 672.65,-123.83"/>
<polygon fill="black" stroke="black" points="674.2,-126.97 681.8,-119.59 671.25,-120.62 674.2,-126.97"/>
<g id="a_edge3&#45;headlabel"><a xlink:href="dir_000146_000021.html" target="_top" xlink:title="2">
<text text-anchor="middle" x="672.13" y="-128.56" font-family="Helvetica,sans-Serif" font-size="10.00">2</text>
</a>
</g>
</g>
<!-- dir_024ed9b5cab300e9b0cec9fa63c26df3 -->
<g id="node5" class="node">
<title>dir_024ed9b5cab300e9b0cec9fa63c26df3</title>
<g id="a_node5"><a xlink:href="dir_024ed9b5cab300e9b0cec9fa63c26df3.html" target="_top" xlink:title="iopmgr">
<polygon fill="#60a2e3" stroke="#404040" points="222,-196 168,-196 168,-160 222,-160 222,-196"/>
<text text-anchor="middle" x="195" y="-175.5" font-family="Helvetica,sans-Serif" font-size="10.00">iopmgr</text>
</a>
</g>
</g>
<!-- dir_024ed9b5cab300e9b0cec9fa63c26df3&#45;&gt;dir_9be0baa3d4a3e9f480a9ee70594037fa -->
<g id="edge4" class="edge">
<title>dir_024ed9b5cab300e9b0cec9fa63c26df3&#45;&gt;dir_9be0baa3d4a3e9f480a9ee70594037fa</title>
<path fill="none" stroke="black" d="M222.12,-164.11C238.04,-155.11 257.11,-141.57 268,-124 279.46,-105.52 282.9,-80.92 283.65,-62.27"/>
<polygon fill="black" stroke="black" points="287.15,-62.13 283.82,-52.07 280.16,-62.01 287.15,-62.13"/>
<g id="a_edge4&#45;headlabel"><a xlink:href="dir_000150_000154.html" target="_top" xlink:title="31">
<text text-anchor="middle" x="289.93" y="-63.27" font-family="Helvetica,sans-Serif" font-size="10.00">31</text>
</a>
</g>
</g>
<!-- dir_37a0b5ec4566a4318c90e018cb9457b6 -->
<g id="node6" class="node">
<title>dir_37a0b5ec4566a4318c90e018cb9457b6</title>
<g id="a_node6"><a xlink:href="dir_37a0b5ec4566a4318c90e018cb9457b6.html" target="_top" xlink:title="mtapman">
<polygon fill="#60a2e3" stroke="#404040" points="297.5,-196 240.5,-196 240.5,-160 297.5,-160 297.5,-196"/>
<text text-anchor="middle" x="269" y="-175.5" font-family="Helvetica,sans-Serif" font-size="10.00">mtapman</text>
</a>
</g>
</g>
<!-- dir_37a0b5ec4566a4318c90e018cb9457b6&#45;&gt;dir_9be0baa3d4a3e9f480a9ee70594037fa -->
<g id="edge5" class="edge">
<title>dir_37a0b5ec4566a4318c90e018cb9457b6&#45;&gt;dir_9be0baa3d4a3e9f480a9ee70594037fa</title>
<path fill="none" stroke="black" d="M276.89,-159.75C281.11,-149.58 285.86,-136.33 288,-124 291.56,-103.55 290.01,-80.09 287.74,-62.39"/>
<polygon fill="black" stroke="black" points="291.16,-61.59 286.26,-52.2 284.23,-62.59 291.16,-61.59"/>
<g id="a_edge5&#45;headlabel"><a xlink:href="dir_000173_000154.html" target="_top" xlink:title="17">
<text text-anchor="middle" x="294.48" y="-62.24" font-family="Helvetica,sans-Serif" font-size="10.00">17</text>
</a>
</g>
</g>
<!-- dir_cb26f304a37e679cc21ccc4e4a07be73 -->
<g id="node7" class="node">
<title>dir_cb26f304a37e679cc21ccc4e4a07be73</title>
<g id="a_node7"><a xlink:href="dir_cb26f304a37e679cc21ccc4e4a07be73.html" target="_top" xlink:title="padman">
<polygon fill="#60a2e3" stroke="#404040" points="78,-196 24,-196 24,-160 78,-160 78,-196"/>
<text text-anchor="middle" x="51" y="-175.5" font-family="Helvetica,sans-Serif" font-size="10.00">padman</text>
</a>
</g>
</g>
<!-- dir_cb26f304a37e679cc21ccc4e4a07be73&#45;&gt;dir_9be0baa3d4a3e9f480a9ee70594037fa -->
<g id="edge6" class="edge">
<title>dir_cb26f304a37e679cc21ccc4e4a07be73&#45;&gt;dir_9be0baa3d4a3e9f480a9ee70594037fa</title>
<path fill="none" stroke="black" d="M78.28,-163.43C81.19,-162.19 84.13,-161.02 87,-160 149.97,-137.62 183.74,-169.16 233,-124 248.23,-110.04 238.19,-98.18 248,-80 251.68,-73.17 256.39,-66.31 261.15,-60.07"/>
<polygon fill="black" stroke="black" points="264.08,-62.01 267.59,-52.01 258.61,-57.64 264.08,-62.01"/>
<g id="a_edge6&#45;headlabel"><a xlink:href="dir_000185_000154.html" target="_top" xlink:title="47">
<text text-anchor="middle" x="264.06" y="-64.09" font-family="Helvetica,sans-Serif" font-size="10.00">47</text>
</a>
</g>
</g>
<!-- dir_1fd4d135da32a6b9ad91946f648cae84 -->
<g id="node12" class="node">
<title>dir_1fd4d135da32a6b9ad91946f648cae84</title>
<g id="a_node12"><a xlink:href="dir_1fd4d135da32a6b9ad91946f648cae84.html" target="_top" xlink:title="sio2man">
<polygon fill="#60a2e3" stroke="#404040" points="78,-124 24,-124 24,-88 78,-88 78,-124"/>
<text text-anchor="middle" x="51" y="-103.5" font-family="Helvetica,sans-Serif" font-size="10.00">sio2man</text>
</a>
</g>
</g>
<!-- dir_cb26f304a37e679cc21ccc4e4a07be73&#45;&gt;dir_1fd4d135da32a6b9ad91946f648cae84 -->
<g id="edge7" class="edge">
<title>dir_cb26f304a37e679cc21ccc4e4a07be73&#45;&gt;dir_1fd4d135da32a6b9ad91946f648cae84</title>
<path fill="none" stroke="black" d="M51,-159.7C51,-151.98 51,-142.71 51,-134.11"/>
<polygon fill="black" stroke="black" points="54.5,-134.1 51,-124.1 47.5,-134.1 54.5,-134.1"/>
<g id="a_edge7&#45;headlabel"><a xlink:href="dir_000185_000202.html" target="_top" xlink:title="1">
<text text-anchor="middle" x="57.34" y="-135.2" font-family="Helvetica,sans-Serif" font-size="10.00">1</text>
</a>
</g>
</g>
<!-- dir_fe7329d8b89241d59f89f45fd75d2e77 -->
<g id="node8" class="node">
<title>dir_fe7329d8b89241d59f89f45fd75d2e77</title>
<g id="a_node8"><a xlink:href="dir_fe7329d8b89241d59f89f45fd75d2e77.html" target="_top" xlink:title="rmman">
<polygon fill="#60a2e3" stroke="#404040" points="370,-196 316,-196 316,-160 370,-160 370,-196"/>
<text text-anchor="middle" x="343" y="-175.5" font-family="Helvetica,sans-Serif" font-size="10.00">rmman</text>
</a>
</g>
</g>
<!-- dir_fe7329d8b89241d59f89f45fd75d2e77&#45;&gt;dir_9be0baa3d4a3e9f480a9ee70594037fa -->
<g id="edge8" class="edge">
<title>dir_fe7329d8b89241d59f89f45fd75d2e77&#45;&gt;dir_9be0baa3d4a3e9f480a9ee70594037fa</title>
<path fill="none" stroke="black" d="M335.76,-159.87C325.45,-135.46 306.42,-90.43 294.25,-61.64"/>
<polygon fill="black" stroke="black" points="297.38,-60.04 290.26,-52.19 290.93,-62.76 297.38,-60.04"/>
<g id="a_edge8&#45;headlabel"><a xlink:href="dir_000194_000154.html" target="_top" xlink:title="17">
<text text-anchor="middle" x="301.39" y="-59.74" font-family="Helvetica,sans-Serif" font-size="10.00">17</text>
</a>
</g>
</g>
<!-- dir_47d6ec5167f7ee6ef257538cbd6ee8bb -->
<g id="node9" class="node">
<title>dir_47d6ec5167f7ee6ef257538cbd6ee8bb</title>
<g id="a_node9"><a xlink:href="dir_47d6ec5167f7ee6ef257538cbd6ee8bb.html" target="_top" xlink:title="rsio2man">
<polygon fill="#60a2e3" stroke="#404040" points="224,-124 168,-124 168,-88 224,-88 224,-124"/>
<text text-anchor="middle" x="196" y="-103.5" font-family="Helvetica,sans-Serif" font-size="10.00">rsio2man</text>
</a>
</g>
</g>
<!-- dir_fe7329d8b89241d59f89f45fd75d2e77&#45;&gt;dir_47d6ec5167f7ee6ef257538cbd6ee8bb -->
<g id="edge10" class="edge">
<title>dir_fe7329d8b89241d59f89f45fd75d2e77&#45;&gt;dir_47d6ec5167f7ee6ef257538cbd6ee8bb</title>
<path fill="none" stroke="black" d="M315.89,-164.15C312.89,-162.74 309.88,-161.34 307,-160 275.01,-145.16 264.41,-141.62 233.51,-126.66"/>
<polygon fill="black" stroke="black" points="234.74,-123.36 224.22,-122.11 231.67,-129.65 234.74,-123.36"/>
<g id="a_edge10&#45;headlabel"><a xlink:href="dir_000194_000196.html" target="_top" xlink:title="2">
<text text-anchor="middle" x="239.22" y="-119.89" font-family="Helvetica,sans-Serif" font-size="10.00">2</text>
</a>
</g>
</g>
<!-- dir_fe7329d8b89241d59f89f45fd75d2e77&#45;&gt;dir_bdd9a5d540de89e9fe90efdfc6973a4f -->
<g id="edge9" class="edge">
<title>dir_fe7329d8b89241d59f89f45fd75d2e77&#45;&gt;dir_bdd9a5d540de89e9fe90efdfc6973a4f</title>
<path fill="none" stroke="black" d="M370.17,-163.08C373.1,-161.9 376.08,-160.85 379,-160 504.17,-123.72 544.3,-158.39 670,-124 670.72,-123.8 671.45,-123.59 672.17,-123.38"/>
<polygon fill="black" stroke="black" points="673.36,-126.67 681.66,-120.08 671.06,-120.06 673.36,-126.67"/>
<g id="a_edge9&#45;headlabel"><a xlink:href="dir_000194_000021.html" target="_top" xlink:title="1">
<text text-anchor="middle" x="670.9" y="-128.03" font-family="Helvetica,sans-Serif" font-size="10.00">1</text>
</a>
</g>
</g>
<!-- dir_47d6ec5167f7ee6ef257538cbd6ee8bb&#45;&gt;dir_9be0baa3d4a3e9f480a9ee70594037fa -->
<g id="edge11" class="edge">
<title>dir_47d6ec5167f7ee6ef257538cbd6ee8bb&#45;&gt;dir_9be0baa3d4a3e9f480a9ee70594037fa</title>
<path fill="none" stroke="black" d="M217.51,-87.7C228.46,-78.88 241.95,-68.03 253.82,-58.47"/>
<polygon fill="black" stroke="black" points="256.14,-61.1 261.74,-52.1 251.76,-55.65 256.14,-61.1"/>
<g id="a_edge11&#45;headlabel"><a xlink:href="dir_000196_000154.html" target="_top" xlink:title="1">
<text text-anchor="middle" x="255.12" y="-63.07" font-family="Helvetica,sans-Serif" font-size="10.00">1</text>
</a>
</g>
</g>
<!-- dir_4bae4802256ab45fc18d13b3c6375605 -->
<g id="node10" class="node">
<title>dir_4bae4802256ab45fc18d13b3c6375605</title>
<g id="a_node10"><a xlink:href="dir_4bae4802256ab45fc18d13b3c6375605.html" target="_top" xlink:title="sbusintr">
<polygon fill="#60a2e3" stroke="#404040" points="150,-124 96,-124 96,-88 150,-88 150,-124"/>
<text text-anchor="middle" x="123" y="-103.5" font-family="Helvetica,sans-Serif" font-size="10.00">sbusintr</text>
</a>
</g>
</g>
<!-- dir_4bae4802256ab45fc18d13b3c6375605&#45;&gt;dir_9be0baa3d4a3e9f480a9ee70594037fa -->
<g id="edge12" class="edge">
<title>dir_4bae4802256ab45fc18d13b3c6375605&#45;&gt;dir_9be0baa3d4a3e9f480a9ee70594037fa</title>
<path fill="none" stroke="black" d="M145.68,-87.94C149.99,-85.09 154.54,-82.31 159,-80 186.89,-65.57 220.47,-53.69 245.65,-45.76"/>
<polygon fill="black" stroke="black" points="247.02,-49.01 255.54,-42.72 244.96,-42.32 247.02,-49.01"/>
<g id="a_edge12&#45;headlabel"><a xlink:href="dir_000198_000154.html" target="_top" xlink:title="10">
<text text-anchor="middle" x="244.42" y="-50.28" font-family="Helvetica,sans-Serif" font-size="10.00">10</text>
</a>
</g>
</g>
<!-- dir_c3fae06f71c3e401160299d109ef6df7 -->
<g id="node11" class="node">
<title>dir_c3fae06f71c3e401160299d109ef6df7</title>
<g id="a_node11"><a xlink:href="dir_c3fae06f71c3e401160299d109ef6df7.html" target="_top" xlink:title="siftoo">
<polygon fill="#60a2e3" stroke="#404040" points="150,-196 96,-196 96,-160 150,-160 150,-196"/>
<text text-anchor="middle" x="123" y="-175.5" font-family="Helvetica,sans-Serif" font-size="10.00">siftoo</text>
</a>
</g>
</g>
<!-- dir_c3fae06f71c3e401160299d109ef6df7&#45;&gt;dir_9be0baa3d4a3e9f480a9ee70594037fa -->
<g id="edge13" class="edge">
<title>dir_c3fae06f71c3e401160299d109ef6df7&#45;&gt;dir_9be0baa3d4a3e9f480a9ee70594037fa</title>
<path fill="none" stroke="black" d="M150.05,-164.02C153.06,-162.64 156.09,-161.28 159,-160 198.09,-142.88 217.98,-154.32 248,-124 252.65,-119.31 265.03,-86.08 273.75,-61.59"/>
<polygon fill="black" stroke="black" points="277.08,-62.66 277.11,-52.07 270.48,-60.33 277.08,-62.66"/>
<g id="a_edge13&#45;headlabel"><a xlink:href="dir_000200_000154.html" target="_top" xlink:title="13">
<text text-anchor="middle" x="278.56" y="-64.5" font-family="Helvetica,sans-Serif" font-size="10.00">13</text>
</a>
</g>
</g>
<!-- dir_c3fae06f71c3e401160299d109ef6df7&#45;&gt;dir_4bae4802256ab45fc18d13b3c6375605 -->
<g id="edge14" class="edge">
<title>dir_c3fae06f71c3e401160299d109ef6df7&#45;&gt;dir_4bae4802256ab45fc18d13b3c6375605</title>
<path fill="none" stroke="black" d="M123,-159.7C123,-151.98 123,-142.71 123,-134.11"/>
<polygon fill="black" stroke="black" points="126.5,-134.1 123,-124.1 119.5,-134.1 126.5,-134.1"/>
<g id="a_edge14&#45;headlabel"><a xlink:href="dir_000200_000198.html" target="_top" xlink:title="3">
<text text-anchor="middle" x="129.34" y="-135.2" font-family="Helvetica,sans-Serif" font-size="10.00">3</text>
</a>
</g>
</g>
<!-- dir_1fd4d135da32a6b9ad91946f648cae84&#45;&gt;dir_9be0baa3d4a3e9f480a9ee70594037fa -->
<g id="edge15" class="edge">
<title>dir_1fd4d135da32a6b9ad91946f648cae84&#45;&gt;dir_9be0baa3d4a3e9f480a9ee70594037fa</title>
<path fill="none" stroke="black" d="M72.68,-88C77.23,-85 82.13,-82.15 87,-80 139.58,-56.75 205.61,-44.79 246.03,-39.22"/>
<polygon fill="black" stroke="black" points="246.53,-42.68 255.98,-37.9 245.61,-35.74 246.53,-42.68"/>
<g id="a_edge15&#45;headlabel"><a xlink:href="dir_000202_000154.html" target="_top" xlink:title="19">
<text text-anchor="middle" x="243.34" y="-43.47" font-family="Helvetica,sans-Serif" font-size="10.00">19</text>
</a>
</g>
</g>
<!-- dir_ba5b6e33a21a738024e426bc2a53820a -->
<g id="node13" class="node">
<title>dir_ba5b6e33a21a738024e426bc2a53820a</title>
<g id="a_node13"><a xlink:href="dir_ba5b6e33a21a738024e426bc2a53820a.html" target="_top" xlink:title="udnl">
<polygon fill="#60a2e3" stroke="#404040" points="442,-196 388,-196 388,-160 442,-160 442,-196"/>
<text text-anchor="middle" x="415" y="-175.5" font-family="Helvetica,sans-Serif" font-size="10.00">udnl</text>
</a>
</g>
</g>
<!-- dir_ba5b6e33a21a738024e426bc2a53820a&#45;&gt;dir_9be0baa3d4a3e9f480a9ee70594037fa -->
<g id="edge16" class="edge">
<title>dir_ba5b6e33a21a738024e426bc2a53820a&#45;&gt;dir_9be0baa3d4a3e9f480a9ee70594037fa</title>
<path fill="none" stroke="black" d="M399.08,-159.87C375.89,-134.92 332.69,-88.45 306.03,-59.77"/>
<polygon fill="black" stroke="black" points="308.35,-57.13 298.98,-52.19 303.22,-61.9 308.35,-57.13"/>
<g id="a_edge16&#45;headlabel"><a xlink:href="dir_000333_000154.html" target="_top" xlink:title="17">
<text text-anchor="middle" x="312.88" y="-55.33" font-family="Helvetica,sans-Serif" font-size="10.00">17</text>
</a>
</g>
</g>
</g>
</svg>
        <g id="navigator" transform="translate(0 0)" fill="#404254">
                <rect fill="#f2f5e9" fill-opacity="0.5" stroke="#606060" stroke-width=".5" x="0" y="0" width="60" height="60"/>
                <use id="zoomplus" xlink:href="#zoomPlus" x="17" y="9" onmousedown="handleZoom(evt,'in')"/>
                <use id="zoomminus" xlink:href="#zoomMin" x="42" y="9" onmousedown="handleZoom(evt,'out')"/>
                <use id="reset" xlink:href="#resetDef" x="30" y="36" onmousedown="handleReset()"/>
                <g id="arrowUp" xlink:href="#dirArrow" transform="translate(30 24)" onmousedown="handlePan(0,-1)">
                  <use xlink:href="#rim" fill="#404040">
                        <set attributeName="fill" to="#808080" begin="arrowUp.mouseover" end="arrowUp.mouseout"/>
                  </use>
                  <path fill="none" stroke="white" stroke-width="1.5" d="M0,-3.0v7 M-2.5,-0.5L0,-3.0L2.5,-0.5"/>
                </g>
                <g id="arrowRight" xlink:href="#dirArrow" transform="rotate(90) translate(36 -43)" onmousedown="handlePan(1,0)">
                  <use xlink:href="#rim" fill="#404040">
                        <set attributeName="fill" to="#808080" begin="arrowRight.mouseover" end="arrowRight.mouseout"/>
                  </use>
                  <path fill="none" stroke="white" stroke-width="1.5" d="M0,-3.0v7 M-2.5,-0.5L0,-3.0L2.5,-0.5"/>
                </g>
                <g id="arrowDown" xlink:href="#dirArrow" transform="rotate(180) translate(-30 -48)" onmousedown="handlePan(0,1)">
                  <use xlink:href="#rim" fill="#404040">
                        <set attributeName="fill" to="#808080" begin="arrowDown.mouseover" end="arrowDown.mouseout"/>
                  </use>
                  <path fill="none" stroke="white" stroke-width="1.5" d="M0,-3.0v7 M-2.5,-0.5L0,-3.0L2.5,-0.5"/>
                </g>
                <g id="arrowLeft" xlink:href="#dirArrow" transform="rotate(270) translate(-36 17)" onmousedown="handlePan(-1,0)">
                  <use xlink:href="#rim" fill="#404040">
                        <set attributeName="fill" to="#808080" begin="arrowLeft.mouseover" end="arrowLeft.mouseout"/>
                  </use>
                  <path fill="none" stroke="white" stroke-width="1.5" d="M0,-3.0v7 M-2.5,-0.5L0,-3.0L2.5,-0.5"/>
                </g>
        </g>
        <svg viewBox="0 0 15 15" width="100%" height="30px" preserveAspectRatio="xMaxYMin meet">
         <g id="arrow_out" transform="scale(0.3 0.3)">
          <a xlink:href="dir_40ac35421bc63b72c26b6c69b1517fd6_dep_org.svg" target="_base">
           <rect id="button" ry="5" rx="5" y="6" x="6" height="38" width="38"
                fill="#f2f5e9" fill-opacity="0.5" stroke="#606060" stroke-width="1.0"/>
           <path id="arrow"
             d="M 11.500037,31.436501 C 11.940474,20.09759 22.043105,11.32322 32.158766,21.979434 L 37.068811,17.246167 C 37.068811,17.246167 37.088388,32 37.088388,32 L 22.160133,31.978069 C 22.160133,31.978069 26.997745,27.140456 26.997745,27.140456 C 18.528582,18.264221 13.291696,25.230495 11.500037,31.436501 z"
             style="fill:#404040;"/>
          </a>
         </g>
        </svg>
</svg>
