<?xml version="1.0" encoding="UTF-8" standalone="no"?>
<!DOCTYPE svg PUBLIC "-//W3C//DTD SVG 1.1//EN"
 "http://www.w3.org/Graphics/SVG/1.1/DTD/svg11.dtd">
<!-- Generated by graphviz version 3.0.0 (20220413.0242)
 -->
<!-- Title: iop/kernel/include/stdint.h Pages: 1 -->
<svg width="767pt" height="173pt"
 viewBox="0.00 0.00 767.00 173.00" xmlns="http://www.w3.org/2000/svg" xmlns:xlink="http://www.w3.org/1999/xlink">
<g id="graph0" class="graph" transform="scale(1 1) rotate(0) translate(4 169)">
<title>iop/kernel/include/stdint.h</title>
<polygon fill="white" stroke="transparent" points="-4,4 -4,-169 763,-169 763,4 -4,4"/>
<!-- Node1 -->
<g id="node1" class="node">
<title>Node1</title>
<g id="a_node1"><a xlink:title=" ">
<polygon fill="#bfbfbf" stroke="black" points="348,-134.5 348,-164.5 440,-164.5 440,-134.5 348,-134.5"/>
<text text-anchor="start" x="356" y="-152.5" font-family="Helvetica,sans-Serif" font-size="10.00">iop/kernel/include</text>
<text text-anchor="middle" x="394" y="-141.5" font-family="Helvetica,sans-Serif" font-size="10.00">/stdint.h</text>
</a>
</g>
</g>
<!-- Node2 -->
<g id="node2" class="node">
<title>Node2</title>
<g id="a_node2"><a xlink:href="libcglue_2src_2glue_8c_source.html" target="_top" xlink:title=" ">
<polygon fill="white" stroke="black" points="0,-73 0,-92 108,-92 108,-73 0,-73"/>
<text text-anchor="middle" x="54" y="-80" font-family="Helvetica,sans-Serif" font-size="10.00">ee/libcglue/src/glue.c</text>
</a>
</g>
</g>
<!-- Node1&#45;&gt;Node2 -->
<g id="edge1" class="edge">
<title>Node1&#45;&gt;Node2</title>
<path fill="none" stroke="midnightblue" d="M337.72,-139.02C281.65,-129.39 193.17,-113.7 117,-98 108.21,-96.19 98.76,-94.09 89.92,-92.07"/>
<polygon fill="midnightblue" stroke="midnightblue" points="337.36,-142.51 347.8,-140.75 338.54,-135.61 337.36,-142.51"/>
</g>
<!-- Node3 -->
<g id="node3" class="node">
<title>Node3</title>
<g id="a_node3"><a xlink:href="sleep_8c.html" target="_top" xlink:title=" ">
<polygon fill="white" stroke="black" points="126.5,-73 126.5,-92 239.5,-92 239.5,-73 126.5,-73"/>
<text text-anchor="middle" x="183" y="-80" font-family="Helvetica,sans-Serif" font-size="10.00">ee/libcglue/src/sleep.c</text>
</a>
</g>
</g>
<!-- Node1&#45;&gt;Node3 -->
<g id="edge2" class="edge">
<title>Node1&#45;&gt;Node3</title>
<path fill="none" stroke="midnightblue" d="M338.85,-131.51C297.67,-118.83 243.12,-102.02 210.69,-92.03"/>
<polygon fill="midnightblue" stroke="midnightblue" points="337.89,-134.88 348.48,-134.48 339.95,-128.19 337.89,-134.88"/>
</g>
<!-- Node4 -->
<g id="node4" class="node">
<title>Node4</title>
<g id="a_node4"><a xlink:href="byteorder_8h.html" target="_top" xlink:title=" ">
<polygon fill="white" stroke="black" points="258,-73 258,-92 390,-92 390,-73 258,-73"/>
<text text-anchor="middle" x="324" y="-80" font-family="Helvetica,sans-Serif" font-size="10.00">iop/fs/netfs/src/byteorder.h</text>
</a>
</g>
</g>
<!-- Node1&#45;&gt;Node4 -->
<g id="edge3" class="edge">
<title>Node1&#45;&gt;Node4</title>
<path fill="none" stroke="midnightblue" d="M371.21,-127.34C358.35,-115.4 342.99,-101.14 333.36,-92.19"/>
<polygon fill="midnightblue" stroke="midnightblue" points="369.1,-130.16 378.81,-134.4 373.86,-125.03 369.1,-130.16"/>
</g>
<!-- Node6 -->
<g id="node6" class="node">
<title>Node6</title>
<g id="a_node6"><a xlink:href="crc16_8h_source.html" target="_top" xlink:title=" ">
<polygon fill="white" stroke="black" points="408.5,-67.5 408.5,-97.5 519.5,-97.5 519.5,-67.5 408.5,-67.5"/>
<text text-anchor="start" x="416.5" y="-85.5" font-family="Helvetica,sans-Serif" font-size="10.00">iop/sio/mx4sio_bd/src</text>
<text text-anchor="middle" x="464" y="-74.5" font-family="Helvetica,sans-Serif" font-size="10.00">/crc16.h</text>
</a>
</g>
</g>
<!-- Node1&#45;&gt;Node6 -->
<g id="edge5" class="edge">
<title>Node1&#45;&gt;Node6</title>
<path fill="none" stroke="midnightblue" d="M416.82,-127.31C427.32,-117.56 439.49,-106.26 448.84,-97.58"/>
<polygon fill="midnightblue" stroke="midnightblue" points="414.14,-125.03 409.19,-134.4 418.9,-130.16 414.14,-125.03"/>
</g>
<!-- Node9 -->
<g id="node9" class="node">
<title>Node9</title>
<g id="a_node9"><a xlink:href="tools_2ps2adpcm_2src_2adpcm_8c_source.html" target="_top" xlink:title=" ">
<polygon fill="white" stroke="black" points="537,-67.5 537,-97.5 639,-97.5 639,-67.5 537,-67.5"/>
<text text-anchor="start" x="545" y="-85.5" font-family="Helvetica,sans-Serif" font-size="10.00">tools/ps2adpcm/src</text>
<text text-anchor="middle" x="588" y="-74.5" font-family="Helvetica,sans-Serif" font-size="10.00">/adpcm.c</text>
</a>
</g>
</g>
<!-- Node1&#45;&gt;Node9 -->
<g id="edge8" class="edge">
<title>Node1&#45;&gt;Node9</title>
<path fill="none" stroke="midnightblue" d="M445.96,-131.09C477.27,-120.6 516.64,-107.41 545.99,-97.58"/>
<polygon fill="midnightblue" stroke="midnightblue" points="444.47,-127.9 436.1,-134.4 446.69,-134.54 444.47,-127.9"/>
</g>
<!-- Node10 -->
<g id="node10" class="node">
<title>Node10</title>
<g id="a_node10"><a xlink:href="tools_2ps2adpcm_2src_2main_8c_source.html" target="_top" xlink:title=" ">
<polygon fill="white" stroke="black" points="657,-67.5 657,-97.5 759,-97.5 759,-67.5 657,-67.5"/>
<text text-anchor="start" x="665" y="-85.5" font-family="Helvetica,sans-Serif" font-size="10.00">tools/ps2adpcm/src</text>
<text text-anchor="middle" x="708" y="-74.5" font-family="Helvetica,sans-Serif" font-size="10.00">/main.c</text>
</a>
</g>
</g>
<!-- Node1&#45;&gt;Node10 -->
<g id="edge9" class="edge">
<title>Node1&#45;&gt;Node10</title>
<path fill="none" stroke="midnightblue" d="M449.94,-138.06C501.5,-128.27 580.08,-112.95 648,-98 650.93,-97.35 653.94,-96.68 656.97,-95.98"/>
<polygon fill="midnightblue" stroke="midnightblue" points="449.18,-134.64 440,-139.94 450.48,-141.52 449.18,-134.64"/>
</g>
<!-- Node5 -->
<g id="node5" class="node">
<title>Node5</title>
<g id="a_node5"><a xlink:href="ps2__fio_8c.html" target="_top" xlink:title=" ">
<polygon fill="white" stroke="black" points="273.5,-0.5 273.5,-30.5 374.5,-30.5 374.5,-0.5 273.5,-0.5"/>
<text text-anchor="start" x="281.5" y="-18.5" font-family="Helvetica,sans-Serif" font-size="10.00">iop/fs/netfs/src/ps2</text>
<text text-anchor="middle" x="324" y="-7.5" font-family="Helvetica,sans-Serif" font-size="10.00">_fio.c</text>
</a>
</g>
</g>
<!-- Node4&#45;&gt;Node5 -->
<g id="edge4" class="edge">
<title>Node4&#45;&gt;Node5</title>
<path fill="none" stroke="midnightblue" d="M324,-62.41C324,-52.22 324,-39.9 324,-30.59"/>
<polygon fill="midnightblue" stroke="midnightblue" points="320.5,-62.73 324,-72.73 327.5,-62.73 320.5,-62.73"/>
</g>
<!-- Node7 -->
<g id="node7" class="node">
<title>Node7</title>
<g id="a_node7"><a xlink:href="crc16_8c_source.html" target="_top" xlink:title=" ">
<polygon fill="white" stroke="black" points="400.5,-0.5 400.5,-30.5 511.5,-30.5 511.5,-0.5 400.5,-0.5"/>
<text text-anchor="start" x="408.5" y="-18.5" font-family="Helvetica,sans-Serif" font-size="10.00">iop/sio/mx4sio_bd/src</text>
<text text-anchor="middle" x="456" y="-7.5" font-family="Helvetica,sans-Serif" font-size="10.00">/crc16.c</text>
</a>
</g>
</g>
<!-- Node6&#45;&gt;Node7 -->
<g id="edge6" class="edge">
<title>Node6&#45;&gt;Node7</title>
<path fill="none" stroke="midnightblue" d="M461.03,-57.4C459.92,-48.37 458.7,-38.41 457.73,-30.58"/>
<polygon fill="midnightblue" stroke="midnightblue" points="457.57,-57.9 462.26,-67.4 464.52,-57.04 457.57,-57.9"/>
</g>
<!-- Node8 -->
<g id="node8" class="node">
<title>Node8</title>
<g id="a_node8"><a xlink:href="mx4sio_8c_source.html" target="_top" xlink:title=" ">
<polygon fill="white" stroke="black" points="529.5,-0.5 529.5,-30.5 640.5,-30.5 640.5,-0.5 529.5,-0.5"/>
<text text-anchor="start" x="537.5" y="-18.5" font-family="Helvetica,sans-Serif" font-size="10.00">iop/sio/mx4sio_bd/src</text>
<text text-anchor="middle" x="585" y="-7.5" font-family="Helvetica,sans-Serif" font-size="10.00">/mx4sio.c</text>
</a>
</g>
</g>
<!-- Node6&#45;&gt;Node8 -->
<g id="edge7" class="edge">
<title>Node6&#45;&gt;Node8</title>
<path fill="none" stroke="midnightblue" d="M499.23,-62.57C518.26,-52.35 541.37,-39.94 558.8,-30.58"/>
<polygon fill="midnightblue" stroke="midnightblue" points="497.41,-59.58 490.26,-67.4 500.72,-65.75 497.41,-59.58"/>
</g>
</g>
</svg>
